<svg width="264" height="264" viewBox="0 0 264 264" fill="none" xmlns="http://www.w3.org/2000/svg">
<g filter="url(#filter0_d_191_317)">
<path d="M249.416 131.631L260 142.693C260 142.693 243.462 117.216 239.493 107.829C235.524 98.443 245.777 100.119 245.777 100.119L258.015 107.829C258.015 107.829 239.824 91.068 230.894 81.6816C221.963 72.2952 235.193 70.6191 235.193 70.6191L248.093 74.977C248.093 74.977 230.563 64.2497 218.656 59.5566C206.749 54.8634 214.025 46.1474 214.025 46.1474H232.217C232.217 46.1474 212.372 41.7895 198.811 40.1133C185.25 38.4372 190.873 27.7099 190.873 27.7099L206.749 23.0167C206.749 23.0167 192.527 23.6872 174.997 24.3576C157.467 25.0281 164.082 15.3065 164.082 15.3065L177.643 6.9258C177.643 6.9258 158.79 12.6247 144.899 17.3179C131.007 22.0111 134.976 9.94285 134.976 9.94285L144.899 0C144.899 0 136.63 4.24398 120.093 15.3065C103.555 26.369 104.217 15.3065 104.217 15.3065L113.478 0C113.478 0 101.901 10.2781 90.6558 24.3576C79.4104 38.4372 76.4336 24.3576 76.4336 24.3576L79.7411 9.60763C79.7411 9.60763 71.1416 25.3633 64.1959 39.4429C57.2502 53.5225 51.9582 44.4713 51.9582 44.4713V25.6986C51.9582 25.6986 46.3354 52.852 44.6817 63.5793C43.0279 74.3066 32.1132 68.6077 32.1132 68.6077L28.475 51.5111C28.475 51.5111 30.4595 84.3634 29.798 92.0736C29.1365 99.7839 20.2062 95.7612 20.2062 95.7612L12.599 80.6759C12.599 80.6759 21.5292 108.5 23.8445 118.892C26.1597 129.284 16.2372 125.596 16.2372 125.596L3.99951 113.528C3.99951 113.528 19.8755 136.994 25.1675 146.045C30.4595 155.096 20.2062 157.778 20.2062 157.778L5.65326 147.386C5.65326 147.386 26.1597 169.511 34.7592 175.21C43.3587 180.909 33.4362 184.261 33.4362 184.261L14.5835 180.239C14.5835 180.239 43.0279 194.653 49.3122 198.006C55.5964 201.358 50.3044 208.733 50.3044 208.733L33.1055 209.739C33.1055 209.739 66.5111 217.114 71.4724 218.454C76.4336 219.795 73.4569 228.176 73.4569 228.176L57.2502 233.54C57.2502 233.54 89.6636 230.858 96.9401 230.523C104.217 230.187 101.24 239.574 101.24 239.574L86.6869 248.29C86.6869 248.29 116.124 238.903 125.715 236.222C135.307 233.54 130.346 245.943 130.346 245.943L119.762 256C119.762 256 143.245 240.58 151.844 235.886C160.444 231.193 160.775 242.591 160.775 242.591L152.175 256C152.175 256 169.705 235.886 177.643 228.176C185.581 220.466 188.888 229.852 188.888 229.852L186.904 236.892L184.258 246.614C184.258 246.614 195.503 223.148 200.134 213.426C204.764 203.704 212.702 212.42 212.702 212.42L211.71 229.852C211.71 229.852 218.325 202.028 220.31 190.966C222.294 179.903 232.217 188.954 232.217 188.954L235.193 205.045C235.193 205.045 234.532 188.284 234.201 166.159C233.87 144.034 251.4 173.199 251.4 173.199C251.4 173.199 244.124 151.744 240.155 138.335C236.186 124.926 249.416 131.631 249.416 131.631ZM132 152.136C119.12 152.136 108.682 141.329 108.682 128C108.682 114.671 119.12 103.864 132 103.864C144.879 103.864 155.317 114.671 155.317 128C155.317 141.329 144.879 152.136 132 152.136Z" fill="#397D25"/>
</g>
<defs>
<filter id="filter0_d_191_317" x="-0.000488281" y="0" width="264" height="264" filterUnits="userSpaceOnUse" color-interpolation-filters="sRGB">
<feFlood flood-opacity="0" result="BackgroundImageFix"/>
<feColorMatrix in="SourceAlpha" type="matrix" values="0 0 0 0 0 0 0 0 0 0 0 0 0 0 0 0 0 0 127 0" result="hardAlpha"/>
<feOffset dy="4"/>
<feGaussianBlur stdDeviation="2"/>
<feComposite in2="hardAlpha" operator="out"/>
<feColorMatrix type="matrix" values="0 0 0 0 0 0 0 0 0 0 0 0 0 0 0 0 0 0 0.25 0"/>
<feBlend mode="normal" in2="BackgroundImageFix" result="effect1_dropShadow_191_317"/>
<feBlend mode="normal" in="SourceGraphic" in2="effect1_dropShadow_191_317" result="shape"/>
</filter>
</defs>
</svg>
